<svg width="63" height="64" viewBox="0 0 63 64" fill="none" xmlns="http://www.w3.org/2000/svg">
<rect x="0.0322266" y="0.334473" width="62.9351" height="62.9351" rx="16.9441" fill="#003E54"/>
<path d="M42.0535 19.0859L33.178 15.7616C32.2582 15.4227 30.7574 15.4227 29.8376 15.7616L20.9621 19.0859C19.2516 19.7314 17.8638 21.7324 17.8638 23.5559V36.627C17.8638 37.9341 18.719 39.6608 19.768 40.4354L28.6434 47.0678C30.2087 48.2458 32.7746 48.2458 34.3399 47.0678L43.2153 40.4354C44.2643 39.6447 45.1195 37.9341 45.1195 36.627V23.5559C45.1357 21.7324 43.7479 19.7314 42.0535 19.0859ZM37.1155 28.1227L30.1765 35.0617C29.9344 35.3038 29.6278 35.4167 29.3212 35.4167C29.0146 35.4167 28.708 35.3038 28.4659 35.0617L25.884 32.4475C25.416 31.9795 25.416 31.2049 25.884 30.7369C26.3519 30.269 27.1265 30.269 27.5945 30.7369L29.3373 32.4798L35.4211 26.396C35.889 25.9281 36.6636 25.9281 37.1316 26.396C37.5996 26.864 37.5996 27.6547 37.1155 28.1227Z" fill="white"/>
</svg>
